<?xml version="1.0" encoding="UTF-8" standalone="no"?><!DOCTYPE svg PUBLIC "-//W3C//DTD SVG 1.1//EN" "http://www.w3.org/Graphics/SVG/1.1/DTD/svg11.dtd"><svg width="100%" height="100%" viewBox="0 0 20 20" version="1.1" xmlns="http://www.w3.org/2000/svg" xmlns:xlink="http://www.w3.org/1999/xlink" xml:space="preserve" xmlns:serif="http://www.serif.com/" style="fill-rule:evenodd;clip-rule:evenodd;stroke-linejoin:round;stroke-miterlimit:2;"><g><circle cx="9.537" cy="9.537" r="9.537" style="fill:#f06050;"/><path d="M0,9.537c0,5.267 4.27,9.537 9.537,9.537l0,-9.537l-9.537,0Z" style="fill:#f06050;fill-rule:nonzero;"/><path d="M19.074,9.537c0,-5.267 -4.27,-9.537 -9.537,-9.537l0,9.537l9.537,0Z" style="fill:#f06050;fill-rule:nonzero;"/><path d="M16.213,9.537c0,3.687 -2.989,6.676 -6.676,6.676c-3.686,0 -6.676,-2.989 -6.676,-6.676c0,-3.686 2.99,-6.676 6.676,-6.676c3.687,0 6.676,2.99 6.676,6.676Z" style="fill:#f06050;fill-rule:nonzero;"/><path d="M15.26,9.537c-0,0.264 -0.214,0.477 -0.477,0.477c-0.264,0 -0.477,-0.213 -0.477,-0.477c-0,-0.263 0.213,-0.477 0.477,-0.477c0.263,0 0.477,0.214 0.477,0.477Z" style="fill:#cf422c;fill-rule:nonzero;"/><path d="M4.769,9.537c-0,0.264 -0.214,0.477 -0.477,0.477c-0.263,0 -0.477,-0.213 -0.477,-0.477c-0,-0.263 0.214,-0.477 0.477,-0.477c0.263,0 0.477,0.214 0.477,0.477Z" style="fill:#cf422c;fill-rule:nonzero;"/><path d="M10.014,4.292c0,0.263 -0.214,0.477 -0.477,0.477c-0.263,-0 -0.477,-0.214 -0.477,-0.477c0,-0.263 0.214,-0.477 0.477,-0.477c0.263,-0 0.477,0.214 0.477,0.477Z" style="fill:#cf422c;fill-rule:nonzero;"/><path d="M10.014,14.783c0,0.263 -0.214,0.477 -0.477,0.477c-0.263,-0 -0.477,-0.214 -0.477,-0.477c0,-0.264 0.214,-0.477 0.477,-0.477c0.263,-0 0.477,0.213 0.477,0.477Z" style="fill:#cf422c;fill-rule:nonzero;"/></g></svg>