<?xml version="1.0" encoding="UTF-8" standalone="no"?><!DOCTYPE svg PUBLIC "-//W3C//DTD SVG 1.1//EN" "http://www.w3.org/Graphics/SVG/1.1/DTD/svg11.dtd"><svg width="100%" height="100%" viewBox="0 0 64 31" version="1.1" xmlns="http://www.w3.org/2000/svg" xmlns:xlink="http://www.w3.org/1999/xlink" xml:space="preserve" xmlns:serif="http://www.serif.com/" style="fill-rule:evenodd;clip-rule:evenodd;stroke-linejoin:round;stroke-miterlimit:2;"><g id="graduate"></g><g id="globe"></g><g><g id="top-rated"><path d="M5.722,17.167l-2.861,12.398l0.954,0.954l5.722,-2.861l0,-10.491l-3.815,-0Z" style="fill:#fad462;fill-rule:nonzero;"/><path d="M16.213,29.565l-2.861,-12.398l-3.815,-0l0,10.491l5.723,2.861l0.953,-0.954Z" style="fill:#fdbe5d;fill-rule:nonzero;"/><circle cx="9.537" cy="9.537" r="9.537" style="fill:#cf422c;"/><path d="M0,9.537c0,5.267 4.27,9.537 9.537,9.537l0,-9.537l-9.537,0Z" style="fill:#d45443;fill-rule:nonzero;"/><path d="M19.074,9.537c0,-5.267 -4.27,-9.537 -9.537,-9.537l0,9.537l9.537,0Z" style="fill:#d45443;fill-rule:nonzero;"/><path d="M16.213,9.537c0,3.687 -2.989,6.676 -6.676,6.676c-3.686,0 -6.676,-2.989 -6.676,-6.676c0,-3.686 2.99,-6.676 6.676,-6.676c3.687,0 6.676,2.99 6.676,6.676Z" style="fill:#f06050;fill-rule:nonzero;"/><path d="M10.014,6.676l0,5.722l-0.954,0l0,-4.768l-0.953,-0l-0,-0.954l1.907,0Z" style="fill:#fff;fill-rule:nonzero;"/><path d="M15.26,9.537c-0,0.264 -0.214,0.477 -0.477,0.477c-0.264,0 -0.477,-0.213 -0.477,-0.477c-0,-0.263 0.213,-0.477 0.477,-0.477c0.263,0 0.477,0.214 0.477,0.477Z" style="fill:#cf422c;fill-rule:nonzero;"/><path d="M4.769,9.537c-0,0.264 -0.214,0.477 -0.477,0.477c-0.263,0 -0.477,-0.213 -0.477,-0.477c-0,-0.263 0.214,-0.477 0.477,-0.477c0.263,0 0.477,0.214 0.477,0.477Z" style="fill:#cf422c;fill-rule:nonzero;"/><path d="M10.014,4.292c0,0.263 -0.214,0.477 -0.477,0.477c-0.263,-0 -0.477,-0.214 -0.477,-0.477c0,-0.263 0.214,-0.477 0.477,-0.477c0.263,-0 0.477,0.214 0.477,0.477Z" style="fill:#cf422c;fill-rule:nonzero;"/><path d="M10.014,14.783c0,0.263 -0.214,0.477 -0.477,0.477c-0.263,-0 -0.477,-0.214 -0.477,-0.477c0,-0.264 0.214,-0.477 0.477,-0.477c0.263,-0 0.477,0.213 0.477,0.477Z" style="fill:#cf422c;fill-rule:nonzero;"/></g><g id="top-rated1" serif:id="top-rated"><path d="M28.167,17.167l-2.861,12.398l0.953,0.954l5.723,-2.861l-0,-10.491l-3.815,-0Z" style="fill:#fad462;fill-rule:nonzero;"/><path d="M38.658,29.565l-2.861,-12.398l-3.815,-0l-0,10.491l5.722,2.861l0.954,-0.954Z" style="fill:#fdbe5d;fill-rule:nonzero;"/><circle cx="31.982" cy="9.537" r="9.537" style="fill:#cf422c;"/><path d="M22.444,9.537c0,5.267 4.271,9.537 9.538,9.537l-0,-9.537l-9.538,0Z" style="fill:#d45443;fill-rule:nonzero;"/><path d="M41.519,9.537c-0,-5.267 -4.27,-9.537 -9.537,-9.537l-0,9.537l9.537,0Z" style="fill:#d45443;fill-rule:nonzero;"/><path d="M38.658,9.537c-0,3.687 -2.99,6.676 -6.676,6.676c-3.687,0 -6.676,-2.989 -6.676,-6.676c-0,-3.686 2.989,-6.676 6.676,-6.676c3.686,0 6.676,2.99 6.676,6.676Z" style="fill:#f06050;fill-rule:nonzero;"/><path d="M32.458,6.676l0,5.722l-0.953,0l-0,-4.768l-0.954,-0l0,-0.954l1.907,0Z" style="fill:#fff;fill-rule:nonzero;"/><path d="M37.704,9.537c-0,0.264 -0.214,0.477 -0.477,0.477c-0.263,0 -0.477,-0.213 -0.477,-0.477c0,-0.263 0.214,-0.477 0.477,-0.477c0.263,0 0.477,0.214 0.477,0.477Z" style="fill:#cf422c;fill-rule:nonzero;"/><path d="M27.213,9.537c0,0.264 -0.214,0.477 -0.477,0.477c-0.263,0 -0.477,-0.213 -0.477,-0.477c0,-0.263 0.214,-0.477 0.477,-0.477c0.263,0 0.477,0.214 0.477,0.477Z" style="fill:#cf422c;fill-rule:nonzero;"/><path d="M32.458,4.292c0,0.263 -0.213,0.477 -0.476,0.477c-0.264,-0 -0.477,-0.214 -0.477,-0.477c-0,-0.263 0.213,-0.477 0.477,-0.477c0.263,-0 0.476,0.214 0.476,0.477Z" style="fill:#cf422c;fill-rule:nonzero;"/><path d="M32.458,14.783c0,0.263 -0.213,0.477 -0.476,0.477c-0.264,-0 -0.477,-0.214 -0.477,-0.477c-0,-0.264 0.213,-0.477 0.477,-0.477c0.263,-0 0.476,0.213 0.476,0.477Z" style="fill:#cf422c;fill-rule:nonzero;"/></g><g id="top-rated2" serif:id="top-rated"><path d="M50.611,17.167l-2.861,12.398l0.954,0.954l5.722,-2.861l0,-10.491l-3.815,-0Z" style="fill:#fad462;fill-rule:nonzero;"/><path d="M61.102,29.565l-2.861,-12.398l-3.815,-0l0,10.491l5.722,2.861l0.954,-0.954Z" style="fill:#fdbe5d;fill-rule:nonzero;"/><circle cx="54.426" cy="9.537" r="9.537" style="fill:#cf422c;"/><path d="M44.889,9.537c-0,5.267 4.27,9.537 9.537,9.537l0,-9.537l-9.537,0Z" style="fill:#d45443;fill-rule:nonzero;"/><path d="M63.963,9.537c0,-5.267 -4.27,-9.537 -9.537,-9.537l0,9.537l9.537,0Z" style="fill:#d45443;fill-rule:nonzero;"/><path d="M61.102,9.537c0,3.687 -2.989,6.676 -6.676,6.676c-3.687,0 -6.676,-2.989 -6.676,-6.676c0,-3.686 2.989,-6.676 6.676,-6.676c3.687,0 6.676,2.99 6.676,6.676Z" style="fill:#f06050;fill-rule:nonzero;"/><path d="M54.903,6.676l-0,5.722l-0.954,0l0,-4.768l-0.954,-0l0,-0.954l1.908,0Z" style="fill:#fff;fill-rule:nonzero;"/><path d="M60.148,9.537c0,0.264 -0.213,0.477 -0.476,0.477c-0.264,0 -0.477,-0.213 -0.477,-0.477c-0,-0.263 0.213,-0.477 0.477,-0.477c0.263,0 0.476,0.214 0.476,0.477Z" style="fill:#cf422c;fill-rule:nonzero;"/><path d="M49.657,9.537c0,0.264 -0.213,0.477 -0.476,0.477c-0.264,0 -0.477,-0.213 -0.477,-0.477c-0,-0.263 0.213,-0.477 0.477,-0.477c0.263,0 0.476,0.214 0.476,0.477Z" style="fill:#cf422c;fill-rule:nonzero;"/><path d="M54.903,4.292c-0,0.263 -0.214,0.477 -0.477,0.477c-0.263,-0 -0.477,-0.214 -0.477,-0.477c0,-0.263 0.214,-0.477 0.477,-0.477c0.263,-0 0.477,0.214 0.477,0.477Z" style="fill:#cf422c;fill-rule:nonzero;"/><path d="M54.903,14.783c-0,0.263 -0.214,0.477 -0.477,0.477c-0.263,-0 -0.477,-0.214 -0.477,-0.477c0,-0.264 0.214,-0.477 0.477,-0.477c0.263,-0 0.477,0.213 0.477,0.477Z" style="fill:#cf422c;fill-rule:nonzero;"/></g></g><g id="top-rated3" serif:id="top-rated"></g><g id="top-rated4" serif:id="top-rated"></g><g id="top-rated5" serif:id="top-rated"></g><g id="top-rated6" serif:id="top-rated"></g><g id="new"></g><g id="showcase"></g><g id="lightbulb"></g></svg>